<?xml version="1.0" encoding="UTF-8"?>
<svg width="126px" height="42px" viewBox="0 0 126 42" version="1.1" xmlns="http://www.w3.org/2000/svg" xmlns:xlink="http://www.w3.org/1999/xlink">
    <!-- Generator: Sketch 43.2 (39069) - http://www.bohemiancoding.com/sketch -->
    <title>Fill 1</title>
    <desc>Created with Sketch.</desc>
    <defs></defs>
    <g id="Welcome" stroke="none" stroke-width="1" fill="none" fill-rule="evenodd">
        <g id="Mobile-Portrait" transform="translate(-142.000000, -36.000000)" fill="#FEFEFE">
            <g id="Group-16" transform="translate(-59.000000, 0.000000)">
                <g id="Page-1" transform="translate(200.000000, 36.000000)">
                    <path d="M126.915208,30.7542061 C126.537572,28.2608141 124.171331,26.4496259 121.707805,25.9097223 C119.245326,25.3698187 116.884316,26.2100175 114.407191,26.6766784 C116.50668,24.5735655 118.643828,22.4191828 119.951432,19.7510546 C121.259036,17.0829264 121.608428,13.7597988 120.101022,11.199442 C118.593616,8.63803895 115.353896,7.28409467 112.915476,8.98018716 C111.688421,3.59475346 106.143134,-0.445106567 100.640736,0.040388137 C95.1383382,0.525882841 90.3859822,5.47499911 90.1213232,10.9933161 C88.3607652,10.2284526 86.2142024,10.4272543 84.624156,11.5049689 C83.0351556,12.5816371 82.5215287,14.5100137 82.5790633,16.4289734 C78.2786153,12.4613097 71.2886873,11.782245 66.306193,14.8511156 C61.3216065,17.9168472 58.8821405,24.5767045 60.4857861,30.2059319 C59.7336522,28.9022112 58.2241542,28.0766609 56.7209326,28.1467647 C55.2198032,28.2158221 53.7929457,29.1784409 53.1642497,30.5459875 C51.973807,29.7884483 50.5668251,29.9087757 49.9130231,31.1591338 C48.5374237,29.6158047 46.2663771,29.1480975 44.2171001,29.4149104 C42.1688692,29.6827695 40.2629056,30.5731919 38.3590342,31.375723 C26.2935105,36.4619078 13.0940327,36.9871629 0.00020921664,36.9871629 L32.2927977,36.9871629 C38.9333338,37.8189911 45.5728239,38.6518656 52.2144062,39.4847402 C54.4226878,39.7609699 56.9406101,39.948262 58.5944676,38.4572492 C59.8215232,39.3277914 62.3007404,39.3801077 63.2443075,38.2082239 C65.3835476,38.7983511 67.601244,39.0452837 69.8063874,39.2880311 C74.8913978,39.8499075 80.2588508,40.3709772 84.9233358,38.273096 C90.3127564,42.2606398 98.6385326,42.1507757 104.390944,38.7083672 C105.77805,39.2880311 107.604512,39.6134381 109.099365,39.458582 C110.672674,39.2953554 112.244937,39.133175 113.8172,38.9699484 C116.505634,38.6905796 119.488017,40.0549872 122.084395,39.3047723 C123.348064,38.9396049 124.50817,38.070109 125.254028,36.9871629 L125.274949,36.9871629 C126.572092,35.2356152 127.242632,32.9096352 126.915208,30.7542061" id="Fill-1"></path>
                </g>
            </g>
        </g>
    </g>
</svg>