<?xml version="1.0" encoding="UTF-8"?>
<svg width="26px" height="26px" viewBox="0 0 26 26" version="1.1" xmlns="http://www.w3.org/2000/svg" xmlns:xlink="http://www.w3.org/1999/xlink">
    <!-- Generator: Sketch 43.2 (39069) - http://www.bohemiancoding.com/sketch -->
    <title>Page 1</title>
    <desc>Created with Sketch.</desc>
    <defs>
        <polygon id="path-1" points="0 12.9233 0 0.000125806452 25.8460635 0.000125806452 25.8460635 12.9233 25.8460635 25.8464742 0 25.8464742 0 12.9233"></polygon>
    </defs>
    <g id="Welcome" stroke="none" stroke-width="1" fill="none" fill-rule="evenodd">
        <g id="Mobile-Portrait" transform="translate(-143.000000, -1074.000000)">
            <g id="Page-1" transform="translate(143.000000, 1074.000000)">
                <mask id="mask-2" fill="white">
                    <use xlink:href="#path-1"></use>
                </mask>
                <g id="Clip-2"></g>
                <path d="M25.8460635,24.6483774 L25.8460635,1.19805484 C25.8460635,0.536312903 25.3182222,-4.19354839e-05 24.6669841,-4.19354839e-05 L22.563873,-4.19354839e-05 L3.28301587,-4.19354839e-05 L1.17907937,-4.19354839e-05 C0.529492063,-4.19354839e-05 0.0033015873,0.533377419 0.000825396825,1.19218387 L0.000825396825,22.5113452 L0,24.6508935 C0.000825396825,25.3109581 0.528666667,25.8464742 1.17907937,25.8464742 L14.2228254,25.8464742 L14.2228254,15.4699581 L10.8560317,15.4699581 L10.8560317,11.8949581 L14.2228254,11.8949581 L14.2228254,8.01215161 C14.2228254,5.68515161 16.2991111,4.12221613 17.974254,4.12221613 L21.7434286,4.12221613 L21.7434286,7.37473226 L20.0047302,7.37473226 C19.1479683,7.37473226 18.005619,8.08176452 18.005619,8.95066774 L18.005619,11.8949581 L21.4013016,11.8949581 L21.4013016,15.4699581 L18.005619,15.4699581 L18.005619,25.8464742 L22.563873,25.8464742 L24.6669841,25.8464742 C25.3182222,25.8464742 25.8460635,25.3101194 25.8460635,24.6483774" id="Fill-1" fill="#FEFEFE" mask="url(#mask-2)"></path>
            </g>
        </g>
    </g>
</svg>