<?xml version="1.0" encoding="utf-8"?>
<!-- Generator: Adobe Illustrator 16.0.0, SVG Export Plug-In . SVG Version: 6.00 Build 0)  -->
<!DOCTYPE svg PUBLIC "-//W3C//DTD SVG 1.1//EN" "http://www.w3.org/Graphics/SVG/1.1/DTD/svg11.dtd">
<svg version="1.1" id="Layer_1" xmlns="http://www.w3.org/2000/svg" xmlns:xlink="http://www.w3.org/1999/xlink" x="0px" y="0px"
	 width="234.024px" height="140.903px" viewBox="0 0 234.024 140.903" enable-background="new 0 0 234.024 140.903"
	 xml:space="preserve">
<g>
	<path fill="#ED3846" d="M219.135,46.859c-4.908-5.304-10.717-9.552-17.099-12.583c2.089-2.653,3.339-5.999,3.339-9.631v-9.057
		C205.375,6.993,198.382,0,189.787,0h-1.694h-12.828h-9.058c-8.595,0-15.588,6.993-15.588,15.588v9.057v4.218H96.651
		c-24.173,0-45.413,15.574-53.031,37.945h-9.557v-0.137c0-8.595-6.995-15.588-15.591-15.588H8.903H0v8.903v49.792v8.903h8.903h9.569
		c8.464,0,15.378-6.782,15.586-15.198h9.745c7.783,22.061,28.954,37.419,52.848,37.419h81.346c30.896,0,56.027-25.131,56.027-56.021
		C234.024,70.738,228.737,57.234,219.135,46.859z"/>
	<g>
		<g>
			<path fill-rule="evenodd" clip-rule="evenodd" fill="#FFFFFF" d="M181.945,39.167c0,3.691-2.993,6.688-6.685,6.688h-9.057
				c-3.691,0-6.686-2.996-6.686-6.688V15.588c0-3.691,2.994-6.685,6.686-6.685h9.057c3.691,0,6.685,2.994,6.685,6.685V39.167z"/>
		</g>
		<g>
			<path fill="#FFFFFF" d="M189.783,15.262c0.18,0,0.325,0.146,0.325,0.326v9.057c0,0.179-0.146,0.325-0.325,0.325h-23.579
				c-0.18,0-0.326-0.146-0.326-0.325v-9.057c0-0.18,0.146-0.326,0.326-0.326H189.783 M189.783,8.903h-23.579
				c-3.691,0-6.686,2.994-6.686,6.685v9.057c0,3.694,2.994,6.685,6.686,6.685h23.579c3.691,0,6.685-2.991,6.685-6.685v-9.057
				C196.468,11.896,193.475,8.903,189.783,8.903L189.783,8.903z"/>
		</g>
		<g>
			<path fill-rule="evenodd" clip-rule="evenodd" fill="#FFFFFF" d="M189.783,8.903h-1.694V31.33h1.694
				c3.691,0,6.685-2.991,6.685-6.685v-9.057C196.468,11.896,193.475,8.903,189.783,8.903z"/>
		</g>
		<g>
			<path fill="#ED3846" d="M178.001,37.766c-0.003,0-0.005,0-0.008,0l0,0H96.647c-26.021,0-47.116,21.095-47.116,47.116
				c0,26.021,21.096,47.117,47.116,47.117h81.346l0,0c0.003,0,0.005,0,0.008,0c26.021,0,47.116-21.096,47.116-47.117
				C225.117,58.861,204.022,37.766,178.001,37.766z"/>
		</g>
		<g>
			<path fill="#FFFFFF" d="M178.001,44.125c22.474,0,40.757,18.284,40.757,40.757c0,22.474-18.283,40.758-40.765,40.758H96.647
				c-22.474,0-40.757-18.284-40.757-40.758c0-22.473,18.283-40.757,40.757-40.757h81.346H178.001 M178.001,37.766
				c-0.003,0-0.005,0-0.008,0H96.647c-26.021,0-47.116,21.095-47.116,47.116c0,26.021,21.096,47.117,47.116,47.117h81.346
				c0.003,0,0.005,0,0.008,0c26.021,0,47.116-21.096,47.116-47.117C225.117,58.861,204.022,37.766,178.001,37.766L178.001,37.766z"
				/>
		</g>
		<g>
			<circle fill="#FFFFFF" cx="101.03" cy="84.882" r="11.216"/>
		</g>
		<g>
			<circle fill="#FFFFFF" cx="137.321" cy="84.882" r="11.213"/>
		</g>
		<g>
			<circle fill="#FFFFFF" cx="173.613" cy="84.882" r="11.212"/>
		</g>
		<g>
			<rect x="9.433" y="75.711" fill="#FFFFFF" width="45.154" height="18.869"/>
		</g>
		<g>
			<path fill="#FFFFFF" d="M18.474,112.958H5.727V56.807h12.747c5.44,0,9.865,4.425,9.865,9.864v36.42
				C28.339,108.533,23.914,112.958,18.474,112.958z M12.086,106.599h6.388c1.934,0,3.506-1.574,3.506-3.508v-36.42
				c0-1.933-1.572-3.505-3.506-3.505h-6.388V106.599z"/>
		</g>
	</g>
</g>
</svg>
