<?xml version="1.0" encoding="UTF-8"?>
<svg width="32px" height="26px" viewBox="0 0 32 26" version="1.1" xmlns="http://www.w3.org/2000/svg" xmlns:xlink="http://www.w3.org/1999/xlink">
    <!-- Generator: Sketch 43.2 (39069) - http://www.bohemiancoding.com/sketch -->
    <title>Page 1</title>
    <desc>Created with Sketch.</desc>
    <defs>
        <polygon id="path-1" points="0 12.9630018 0 25.9259877 32 25.9259877 32 12.9630018 32 1.59509202e-05 0 1.59509202e-05 0 12.9630018"></polygon>
    </defs>
    <g id="Welcome" stroke="none" stroke-width="1" fill="none" fill-rule="evenodd">
        <g id="Mobile-Portrait" transform="translate(-65.000000, -1074.000000)">
            <g id="Page-1" transform="translate(65.000000, 1074.000000)">
                <mask id="mask-2" fill="white">
                    <use xlink:href="#path-1"></use>
                </mask>
                <g id="Clip-2"></g>
                <path d="M32,3.06897301 C30.82272,3.58961104 29.55728,3.94132883 28.22944,4.09956196 C29.58464,3.28957423 30.62576,2.00696074 31.116,0.478543558 C29.84736,1.22855583 28.4424,1.77327975 26.94688,2.06677669 C25.74944,0.794690798 24.0432,1.59509202e-05 22.15488,1.59509202e-05 C18.52928,1.59509202e-05 15.5896,2.93035951 15.5896,6.54483804 C15.5896,7.05781963 15.64768,7.55740245 15.75968,8.03640859 C10.30336,7.76348834 5.46576,5.15774601 2.22784,1.19793006 C1.66272,2.16455583 1.33888,3.28877669 1.33888,4.48828589 C1.33888,6.7590589 2.49792,8.76233497 4.25952,9.93616319 C3.18336,9.90202822 2.17104,9.60773374 1.28592,9.11740245 C1.28528,9.14483804 1.28528,9.17211411 1.28528,9.19986871 C1.28528,12.3709117 3.54832,15.0160528 6.55168,15.617562 C6.0008,15.7670221 5.4208,15.8470957 4.82208,15.8470957 C4.39904,15.8470957 3.98768,15.8061018 3.58672,15.7296969 C4.42224,18.3298564 6.84672,20.2222736 9.71968,20.2749117 C7.4728,22.0304699 4.64208,23.0768503 1.56608,23.0768503 C1.03616,23.0768503 0.5136,23.045746 0,22.9851325 C2.90544,24.8422982 6.35632,25.9260037 10.06384,25.9260037 C22.13952,25.9260037 28.7432,15.9526908 28.7432,7.30378282 C28.7432,7.02001595 28.73664,6.73768466 28.724,6.45694847 C30.00688,5.53418773 31.11984,4.38157423 32,3.06897301" id="Fill-1" fill="#FEFEFE" mask="url(#mask-2)"></path>
            </g>
        </g>
    </g>
</svg>