<?xml version="1.0" encoding="UTF-8"?>
<svg width="117px" height="117px" viewBox="0 0 117 117" version="1.1" xmlns="http://www.w3.org/2000/svg" xmlns:xlink="http://www.w3.org/1999/xlink">
    <!-- Generator: Sketch 43.2 (39069) - http://www.bohemiancoding.com/sketch -->
    <title>Page 1</title>
    <desc>Created with Sketch.</desc>
    <defs>
        <polygon id="path-1" points="0 116.568947 116.566244 116.568947 116.566244 0.473684211 0 0.473684211"></polygon>
    </defs>
    <g id="Welcome" stroke="none" stroke-width="1" fill="none" fill-rule="evenodd">
        <g id="Mobile-Portrait" transform="translate(-43.000000, -40.000000)">
            <g id="Page-1" transform="translate(43.000000, 40.000000)">
                <g id="Group-3" transform="translate(0.000000, 0.042632)" fill="#EC3745">
                    <path d="M116.566196,58.4787316 C116.566196,90.5386263 90.4718671,116.526363 58.28355,116.526363 C26.0942817,116.526363 -4.75609756e-05,90.5386263 -4.75609756e-05,58.4787316 C-4.75609756e-05,26.4197842 26.0942817,0.4311 58.28355,0.4311 C90.4718671,0.4311 116.566196,26.4197842 116.566196,58.4787316" id="Fill-1"></path>
                </g>
                <path d="M87.5684122,28.0570737 L86.5962659,27.3797053 L85.4514732,28.4625474 L86.5962659,34.4991789 L74.725522,38.6088632 L64.5503268,47.4023368 L40.6480829,53.6251263 L26.4986927,57.3582316 L20.1959122,58.5211263 L19.2294732,66.5027053 L13.2567659,67.1052316 L12.3493024,68.2283368 L47.6129122,115.594863 C51.0724976,116.231968 54.6386195,116.568758 58.2836927,116.568758 C89.3980829,116.568758 114.817046,92.2843895 116.4774,61.7090211 L87.5684122,28.0570737 Z" id="Fill-4" fill="#BC3949"></path>
                <path d="M82.4895183,39.1636895 C82.4895183,40.6240579 81.3004939,41.8096895 79.8337134,41.8096895 L76.23525,41.8096895 C74.7684695,41.8096895 73.5794451,40.6240579 73.5794451,39.1636895 L73.5794451,29.8325842 C73.5794451,28.3722158 74.7684695,27.1880053 76.23525,27.1880053 L79.8337134,27.1880053 C81.3004939,27.1880053 82.4895183,28.3722158 82.4895183,29.8325842 L82.4895183,39.1636895 Z" id="Fill-6" fill="#FEFEFE"></path>
                <path d="M85.6032402,27.1878632 L76.2351549,27.1878632 C74.7683744,27.1878632 73.57935,28.3720737 73.57935,29.8324421 L73.57935,33.4168105 C73.57935,34.8786 74.7683744,36.0623368 76.2351549,36.0623368 L85.6032402,36.0623368 C87.0719232,36.0623368 88.2599963,34.8786 88.2599963,33.4168105 L88.2599963,29.8324421 C88.2599963,28.3720737 87.0719232,27.1878632 85.6032402,27.1878632 M85.6032402,29.7040737 C85.6760085,29.7040737 85.7330817,29.7623368 85.7330817,29.8324421 L85.7330817,33.4168105 C85.7330817,33.4883368 85.6760085,33.5461263 85.6032402,33.5461263 L76.2351549,33.5461263 C76.1633378,33.5461263 76.1067402,33.4883368 76.1067402,33.4168105 L76.1067402,29.8324421 C76.1067402,29.7623368 76.1633378,29.7040737 76.2351549,29.7040737 L85.6032402,29.7040737" id="Fill-8" fill="#FEFEFE"></path>
                <path d="M85.6032402,27.1878632 L84.9302524,27.1878632 L84.9302524,36.0623368 L85.6032402,36.0623368 C87.0719232,36.0623368 88.2599963,34.8786 88.2599963,33.4168105 L88.2599963,29.8324421 C88.2599963,28.3720737 87.0719232,27.1878632 85.6032402,27.1878632" id="Fill-10" fill="#FEFEFE"></path>
                <path d="M80.9223841,38.6090526 L80.9200061,38.6090526 L48.5994695,38.6090526 C38.2606646,38.6090526 29.8789939,46.9567895 29.8789939,57.2542105 C29.8789939,67.5511579 38.2606646,75.8988947 48.5994695,75.8988947 L80.9200061,75.8988947 L80.9223841,75.8988947 C91.261189,75.8988947 99.6433354,67.5511579 99.6433354,57.2542105 C99.6433354,46.9567895 91.261189,38.6090526 80.9223841,38.6090526" id="Fill-12" fill="#EC3745"></path>
                <path d="M80.9223841,38.6090526 L80.9200061,38.6090526 L48.5994695,38.6090526 C38.2606646,38.6090526 29.8789939,46.9567895 29.8789939,57.2542105 C29.8789939,67.5511579 38.2606646,75.8988947 48.5994695,75.8988947 L80.9200061,75.8988947 L80.9223841,75.8988947 C91.261189,75.8988947 99.6433354,67.5511579 99.6433354,57.2542105 C99.6433354,46.9567895 91.261189,38.6090526 80.9223841,38.6090526 M80.9223841,41.1252632 C89.8529085,41.1252632 97.117372,48.3612632 97.117372,57.2542105 C97.117372,66.1476316 89.8529085,73.3822105 80.9200061,73.3822105 L48.5994695,73.3822105 C39.6708476,73.3822105 32.4063841,66.1476316 32.4063841,57.2542105 C32.4063841,48.3612632 39.6708476,41.1252632 48.5994695,41.1252632 L80.9200061,41.1252632 L80.9223841,41.1252632" id="Fill-14" fill="#FEFEFE"></path>
                <path d="M54.7972829,57.2543526 C54.7972829,59.7047211 52.8011488,61.6913526 50.3393927,61.6913526 C47.8785878,61.6913526 45.8853073,59.7047211 45.8853073,57.2543526 C45.8853073,54.8035105 47.8785878,52.8168789 50.3393927,52.8168789 C52.8011488,52.8168789 54.7972829,54.8035105 54.7972829,57.2543526" id="Fill-16" fill="#FEFEFE"></path>
                <path d="M69.2151549,57.2543526 C69.2151549,59.7047211 67.2209232,61.6913526 64.7620207,61.6913526 C62.3002646,61.6913526 60.3046061,59.7047211 60.3046061,57.2543526 C60.3046061,54.8035105 62.3002646,52.8168789 64.7620207,52.8168789 C67.2209232,52.8168789 69.2151549,54.8035105 69.2151549,57.2543526" id="Fill-18" fill="#FEFEFE"></path>
                <path d="M83.6348817,57.2543526 C83.6348817,59.7047211 81.6401744,61.6913526 79.1788939,61.6913526 C76.7199915,61.6913526 74.7257598,59.7047211 74.7257598,57.2543526 C74.7257598,54.8035105 76.7199915,52.8168789 79.1788939,52.8168789 C81.6401744,52.8168789 83.6348817,54.8035105 83.6348817,57.2543526" id="Fill-20" fill="#FEFEFE"></path>
                <mask id="mask-2" fill="white">
                    <use xlink:href="#path-1"></use>
                </mask>
                <g id="Clip-23"></g>
                <polygon id="Fill-22" fill="#FEFEFE" mask="url(#mask-2)" points="13.9477317 61.0915263 31.8863049 61.0915263 31.8863049 53.6248421 13.9477317 53.6248421"></polygon>
                <path d="M15.0003037,65.8477421 L17.5400598,65.8477421 C18.3062671,65.8477421 18.9331207,65.2243737 18.9331207,64.4589 L18.9331207,50.0480053 C18.9331207,49.2825316 18.3062671,48.6601105 17.5400598,48.6601105 L15.0003037,48.6601105 L15.0003037,65.8477421 Z M17.5400598,68.3639526 L12.4743402,68.3639526 L12.4743402,46.1439 L17.5400598,46.1439 C19.7007549,46.1439 21.4590841,47.8955842 21.4590841,50.0480053 L21.4590841,64.4589 C21.4590841,66.6117947 19.7007549,68.3639526 17.5400598,68.3639526 L17.5400598,68.3639526 Z" id="Fill-24" fill="#FEFEFE" mask="url(#mask-2)"></path>
            </g>
        </g>
    </g>
</svg>