<?xml version="1.0" encoding="utf-8"?>
<!-- Generator: Adobe Illustrator 16.0.0, SVG Export Plug-In . SVG Version: 6.00 Build 0)  -->
<!DOCTYPE svg PUBLIC "-//W3C//DTD SVG 1.1//EN" "http://www.w3.org/Graphics/SVG/1.1/DTD/svg11.dtd">
<svg version="1.1" id="Layer_1" xmlns="http://www.w3.org/2000/svg" xmlns:xlink="http://www.w3.org/1999/xlink" x="0px" y="0px"
	 width="293.379px" height="355.615px" viewBox="0 0 293.379 355.615" enable-background="new 0 0 293.379 355.615"
	 xml:space="preserve">
<g>
	<circle fill="#ED3846" cx="146.689" cy="146.69" r="146.689"/>
</g>
<g>
	<path fill="#BD3A4A" d="M220.394,69.704l-2.447-1.709l-2.88,2.735l2.88,15.255L188.07,96.372l-25.609,22.22l-60.157,15.725
		l-35.613,9.435l-15.862,2.938l-2.433,20.168l-15.034,1.526l-2.283,2.835l88.757,119.699c8.707,1.61,17.681,2.461,26.854,2.461
		c78.312,0,142.284-61.367,146.466-138.633L220.394,69.704z"/>
</g>
<g>
	<path fill-rule="evenodd" clip-rule="evenodd" fill="#FFFFFF" d="M207.614,97.772c0,3.691-2.994,6.687-6.686,6.687h-9.057
		c-3.691,0-6.686-2.996-6.686-6.687v-23.58c0-3.691,2.994-6.685,6.686-6.685h9.057c3.691,0,6.686,2.993,6.686,6.685V97.772z"/>
</g>
<g>
	<path fill="#FFFFFF" d="M215.452,73.868c0.179,0,0.324,0.146,0.324,0.325v9.057c0,0.18-0.146,0.326-0.324,0.326h-23.58
		c-0.18,0-0.325-0.146-0.325-0.326v-9.057c0-0.179,0.146-0.325,0.325-0.325H215.452 M215.452,67.508h-23.58
		c-3.691,0-6.686,2.993-6.686,6.685v9.057c0,3.694,2.994,6.685,6.686,6.685h23.58c3.691,0,6.684-2.991,6.684-6.685v-9.057
		C222.136,70.501,219.144,67.508,215.452,67.508L215.452,67.508z"/>
</g>
<g>
	<path fill-rule="evenodd" clip-rule="evenodd" fill="#FFFFFF" d="M215.452,67.508h-1.695v22.427h1.695
		c3.691,0,6.684-2.991,6.684-6.685v-9.057C222.136,70.501,219.144,67.508,215.452,67.508z"/>
</g>
<g>
	<path fill="#ED3846" d="M203.669,96.372c-0.002,0-0.005,0-0.008,0l0,0h-81.345c-26.021,0-47.117,21.095-47.117,47.116
		c0,26.021,21.095,47.117,47.117,47.117h81.345l0,0c0.003,0,0.006,0,0.008,0c26.021,0,47.117-21.096,47.117-47.117
		C250.786,117.467,229.69,96.372,203.669,96.372z"/>
</g>
<g>
	<path fill="#FFFFFF" d="M203.669,102.731c22.475,0,40.758,18.284,40.758,40.757c0,22.474-18.283,40.757-40.766,40.757h-81.345
		c-22.474,0-40.757-18.283-40.757-40.757c0-22.473,18.284-40.757,40.757-40.757h81.345H203.669 M203.669,96.372
		c-0.002,0-0.005,0-0.008,0h-81.345c-26.021,0-47.117,21.095-47.117,47.116c0,26.021,21.095,47.117,47.117,47.117h81.345
		c0.003,0,0.006,0,0.008,0c26.021,0,47.117-21.096,47.117-47.117C250.786,117.467,229.69,96.372,203.669,96.372L203.669,96.372z"/>
</g>
<g>
	<circle fill="#FFFFFF" cx="126.7" cy="143.488" r="11.216"/>
</g>
<g>
	<path fill="#FFFFFF" d="M174.204,143.488c0,6.193-5.021,11.213-11.211,11.213c-6.193,0-11.217-5.02-11.217-11.213
		c0-6.193,5.023-11.213,11.217-11.213C169.183,132.274,174.204,137.295,174.204,143.488z"/>
</g>
<g>
	<circle fill="#FFFFFF" cx="199.282" cy="143.488" r="11.212"/>
</g>
<g>
	<rect x="35.102" y="134.316" fill="#FFFFFF" width="45.153" height="18.87"/>
</g>
<g>
	<path fill="#FFFFFF" d="M44.143,171.564H31.396v-56.152h12.748c5.44,0,9.866,4.426,9.866,9.865v36.42
		C54.009,167.137,49.583,171.564,44.143,171.564z M37.755,165.205h6.388c1.933,0,3.506-1.574,3.506-3.508v-36.42
		c0-1.933-1.573-3.505-3.506-3.505h-6.388V165.205z"/>
</g>
<g>
	<path fill="#ED3846" d="M29.901,325.537l-2.683,2.801c-2.266-2.186-4.461-3.279-6.588-3.279c-1.372,0-2.544,0.447-3.518,1.342
		s-1.461,1.959-1.461,3.189c0,1.033,0.408,2.027,1.222,2.982c0.795,1.014,2.475,2.176,5.038,3.486
		c3.14,1.611,5.266,3.17,6.379,4.682c1.093,1.529,1.639,3.248,1.639,5.156c0,2.662-0.939,4.924-2.817,6.781
		c-1.878,1.859-4.228,2.787-7.05,2.787c-1.888,0-3.691-0.402-5.411-1.207c-1.719-0.805-3.135-1.932-4.248-3.383l2.653-3.012
		c2.146,2.426,4.422,3.637,6.826,3.637c1.669,0,3.096-0.541,4.278-1.623c1.183-1.084,1.774-2.352,1.774-3.801
		c0-1.213-0.388-2.287-1.163-3.221c-0.775-0.934-2.534-2.105-5.276-3.518c-2.961-1.49-4.968-2.99-6.021-4.5
		c-1.073-1.471-1.61-3.16-1.61-5.068c0-2.484,0.85-4.547,2.549-6.186s3.831-2.459,6.394-2.459
		C23.811,321.125,26.841,322.596,29.901,325.537z"/>
	<path fill="#ED3846" d="M36.758,321.959h4.233v15.264c0,3.734,0.199,6.299,0.596,7.689c0.596,2.008,1.739,3.592,3.428,4.756
		c1.689,1.162,3.716,1.744,6.081,1.744c2.345,0,4.333-0.566,5.962-1.699s2.752-2.625,3.369-4.473
		c0.437-1.252,0.656-3.924,0.656-8.018v-15.264h4.292v16.068c0,4.51-0.532,7.904-1.595,10.18c-1.063,2.275-2.648,4.055-4.755,5.336
		s-4.75,1.922-7.929,1.922c-3.2,0-5.863-0.641-7.989-1.922c-2.126-1.281-3.716-3.08-4.77-5.396c-1.054-2.314-1.58-5.797-1.58-10.447
		V321.959z"/>
	<path fill="#ED3846" d="M74.616,342.766v-5.217c0.358-4.451,1.292-7.709,2.802-9.777c1.252-1.887,2.892-3.387,4.918-4.5
		c1.332-0.855,3.229-1.312,5.694-1.371c1.59,0,3.2,0.297,4.829,0.895c1.63,0.596,2.892,1.391,3.786,2.385
		c0.895,0.992,1.799,2.482,2.713,4.471c0.497-1.271,1.54-2.762,3.13-4.471c0.775-0.656,1.779-1.303,3.011-1.939
		c0.835-0.535,2.772-0.982,5.813-1.34c2.266,0,4.442,0.566,6.528,1.699c2.087,1.133,3.552,2.727,4.397,4.783
		s1.267,5.123,1.267,9.197v17.855h-4.293V337.58c0-3.498-0.248-5.902-0.745-7.215c-0.497-1.311-1.352-2.369-2.563-3.174
		c-1.212-0.805-2.673-1.207-4.382-1.207c-3.219,0.219-5.972,1.777-8.257,4.68c-0.895,1.232-1.57,3.965-2.027,8.197v16.574h-4.203
		v-16.754c0-3.934-0.437-6.611-1.312-8.033c-0.875-1.42-1.918-2.553-3.13-3.398c-1.212-0.844-2.723-1.266-4.531-1.266
		c-1.948,0-3.622,0.496-5.023,1.49c-1.401,0.992-2.499,2.479-3.294,4.455c-0.795,1.979-1.113,5.193-0.954,9.645v13.861h-4.173
		V342.766z"/>
	<path fill="#ED3846" d="M134.951,349.086c-1.789-2.98-2.862-5.912-3.22-8.793c0-20.689,0-31.012,0-30.973h4.173v18.244
		c1.769-2.168,3.746-3.781,5.932-4.846c2.186-1.062,4.581-1.594,7.184-1.594c4.611,0,8.556,1.68,11.834,5.037
		c3.279,3.359,4.92,7.434,4.92,12.223c0,4.709-1.65,8.734-4.949,12.072c-3.299,3.34-7.273,5.008-11.924,5.008
		c-2.663,0-5.162-0.512-7.497-1.535S136.918,351.291,134.951,349.086z M148.544,351.441c2.365,0,4.535-0.582,6.514-1.744
		c1.977-1.162,3.552-2.777,4.725-4.844c1.172-2.066,1.759-4.273,1.759-6.619c0-2.305-0.591-4.516-1.774-6.631
		c-1.182-2.117-2.771-3.756-4.77-4.92c-1.996-1.162-4.128-1.744-6.394-1.744c-2.305,0-4.491,0.582-6.558,1.744
		c-2.067,1.164-3.657,2.742-4.77,4.74s-1.669,4.229-1.669,6.691c0,3.797,1.252,6.967,3.756,9.51
		C141.866,350.17,144.927,351.441,148.544,351.441z"/>
	<path fill="#ED3846" d="M189.651,321.125c5.027,0,9.201,1.818,12.52,5.455c3.061,3.318,4.591,7.264,4.591,11.834
		c0.04,11.287,0.04,17.021,0,17.201c-1.907,0-3.388,0-4.441,0c0-0.141,0-2.613,0-7.424c-2.325,4.332-6.548,6.758-12.669,7.273
		c-5.008,0-9.098-1.703-12.267-5.111c-3.17-3.408-4.755-7.389-4.755-11.939c0-4.531,1.5-8.465,4.502-11.805
		C180.45,322.953,184.624,321.125,189.651,321.125z M189.651,325.238c-3.479,0-6.469,1.291-8.973,3.875s-3.756,5.703-3.756,9.361
		c0,2.363,0.641,4.639,1.922,6.826c1.282,2.186,3.453,4.033,6.514,5.545c7.672,1.709,13.127-1.779,16.365-10.465
		c0.18-2.781-0.119-5.445-0.894-7.988c-0.557-1.152-1.321-2.246-2.296-3.279C196.091,326.529,193.129,325.238,189.651,325.238z"/>
	<path fill="#ED3846" d="M213.32,340.471v-3.934c0.317-1.969,0.774-3.568,1.371-4.801c1.392-3.418,3.259-5.922,5.604-7.512
		c2.345-1.59,4.292-2.385,5.842-2.385c1.153,0,2.385,0.377,3.697,1.133l-2.176,3.518c-1.849-0.676-3.682-0.129-5.5,1.641
		c-1.818,1.768-3.076,3.695-3.771,5.781c-0.517,1.85-0.775,5.316-0.775,10.404v11.059h-4.292V340.471z"/>
	<path fill="#ED3846" d="M234.872,309.291c0.954,0,1.773,0.338,2.459,1.014c0.687,0.674,1.029,1.49,1.029,2.443
		s-0.343,1.773-1.029,2.459c-0.686,0.686-1.505,1.029-2.459,1.029c-0.953,0-1.769-0.344-2.443-1.029
		c-0.676-0.686-1.014-1.506-1.014-2.459s0.338-1.77,1.014-2.443C233.104,309.629,233.919,309.291,234.872,309.291z M232.786,322.734
		h4.203v32.701h-4.203V322.734z"/>
	<path fill="#ED3846" d="M245.663,343.035l-0.059-3.488c-0.061-1.709,0.01-3.16,0.208-4.352c0.438-3.756,1.392-6.51,2.862-8.258
		c1.43-1.529,2.891-2.713,4.381-3.547c2.465-1.055,5.277-1.551,8.437-1.49c2.464,0,4.745,0.621,6.841,1.863
		c2.098,1.24,3.593,2.91,4.486,5.008c0.895,2.096,1.342,5.381,1.342,9.852v16.812h-4.173v-15.59c0-3.777-0.159-6.301-0.478-7.572
		c-0.496-2.166-1.48-3.701-2.951-4.605s-3.646-1.357-6.527-1.357c-2.545,0-4.81,0.736-6.797,2.207s-2.912,3.479-2.772,6.021
		c-0.378,1.629-0.566,4.6-0.566,8.912v11.984h-4.233V343.035z"/>
</g>
</svg>
