<?xml version="1.0" encoding="UTF-8"?>
<svg width="27px" height="28px" viewBox="0 0 27 28" version="1.1" xmlns="http://www.w3.org/2000/svg" xmlns:xlink="http://www.w3.org/1999/xlink">
    <!-- Generator: Sketch 43.2 (39069) - http://www.bohemiancoding.com/sketch -->
    <title>Page 1</title>
    <desc>Created with Sketch.</desc>
    <defs>
        <polygon id="path-1" points="26.9911062 3.32278858e-15 2.89699571e-05 3.32278858e-15 2.89699571e-05 27.9849478 26.9911062 27.9849478 26.9911062 0"></polygon>
    </defs>
    <g id="Welcome" stroke="none" stroke-width="1" fill="none" fill-rule="evenodd">
        <g id="Mobile-Portrait" transform="translate(-214.000000, -1072.000000)">
            <g id="Page-1" transform="translate(214.000000, 1072.000000)">
                <mask id="mask-2" fill="white">
                    <use xlink:href="#path-1"></use>
                </mask>
                <g id="Clip-2"></g>
                <path d="M22.761956,6.30903132 C22.761956,5.35136117 21.992456,4.57501879 21.0431685,4.57501879 C20.0939388,4.57501879 19.3244388,5.35136117 19.3244388,6.30903132 C19.3244388,7.26670146 20.0939388,8.04316075 21.0431685,8.04316075 C21.992456,8.04316075 22.761956,7.26670146 22.761956,6.30903132 L22.761956,6.30903132 Z M13.3247028,9.02134864 C12.0749388,9.02134864 10.8947028,9.53651357 10.0012693,10.4716785 C9.10366416,11.411286 8.60937876,12.6478455 8.60937876,13.9536159 C8.60937876,16.6718372 10.8013036,18.8832526 13.4955676,18.8832526 C16.1754045,18.8832526 18.3218466,16.705858 18.3820461,13.9262589 C18.4124646,12.5243299 18.0127371,11.3355282 17.2262607,10.4884551 C16.3805697,9.57760752 15.0780225,9.07103549 13.4593552,9.02345303 C13.4142779,9.0220501 13.3694324,9.02134864 13.3247028,9.02134864 L13.3247028,9.02134864 Z M13.4955676,21.3885219 C9.43212554,21.3885219 6.12618991,18.05319 6.12618991,13.9536159 C6.12618991,11.996071 6.86741524,10.1421086 8.2133015,8.73322338 C9.57906116,7.30358664 11.3943187,6.51619624 13.3247028,6.51619624 C13.3935354,6.51619624 13.4624839,6.51724843 13.5317221,6.51923591 C15.8263745,6.58681002 17.7305697,7.36712735 19.0384474,8.77577871 C20.277956,10.1107766 20.9094431,11.9106681 20.8646556,13.9809729 C20.8217221,15.9627766 20.0467178,17.8186681 18.6824646,19.2068017 C17.2997285,20.6136994 15.4576448,21.3885219 13.4955676,21.3885219 L13.4955676,21.3885219 Z M7.92354399,2.04969937 C4.67479506,2.04969937 2.03169206,4.71624635 2.03169206,7.99394154 L2.03169206,19.9910939 C2.03169206,23.2687307 4.67479506,25.9352777 7.92354399,25.9352777 L19.0676491,25.9352777 C22.316456,25.9352777 24.9595011,23.2687307 24.9595011,19.9910939 L24.9595011,7.99394154 C24.9595011,4.71624635 22.316456,2.04969937 19.0676491,2.04969937 L7.92354399,2.04969937 Z M19.0676491,27.9849478 L7.92354399,27.9849478 C3.55452682,27.9849478 2.89699571e-05,24.3989603 2.89699571e-05,19.9910939 L2.89699571e-05,7.99394154 C2.89699571e-05,3.58607516 3.55452682,-2.92275574e-05 7.92354399,-2.92275574e-05 L19.0676491,-2.92275574e-05 C23.4367242,-2.92275574e-05 26.9911062,3.58607516 26.9911062,7.99394154 L26.9911062,19.9910939 C26.9911062,24.3989603 23.4367242,27.9849478 19.0676491,27.9849478 L19.0676491,27.9849478 Z" id="Fill-1" fill="#FEFEFE" mask="url(#mask-2)"></path>
            </g>
        </g>
    </g>
</svg>