<?xml version="1.0" encoding="UTF-8"?>
<svg width="50px" height="50px" viewBox="0 0 50 50" version="1.1" xmlns="http://www.w3.org/2000/svg" xmlns:xlink="http://www.w3.org/1999/xlink">
    <!-- Generator: Sketch 43.2 (39069) - http://www.bohemiancoding.com/sketch -->
    <title>Group 15</title>
    <desc>Created with Sketch.</desc>
    <defs></defs>
    <g id="Welcome" stroke="none" stroke-width="1" fill="none" fill-rule="evenodd">
        <g id="Mobile-Portrait" transform="translate(-216.000000, -3696.000000)">
            <g id="Group-16" transform="translate(-54.000000, -98.000000)">
                <g id="Group-15" transform="translate(270.000000, 3794.000000)">
                    <path d="M50,25 C50,38.806814 38.806814,50 25,50 C11.193186,50 5.68434189e-14,38.806814 5.68434189e-14,25 C5.68434189e-14,11.1925715 11.193186,0 25,0 C38.806814,0 50,11.1925715 50,25" id="Fill-3" fill="#65003A"></path>
                    <g id="Group-2" transform="translate(10.000000, 10.000000)" fill="#FCDBDC">
                        <path d="M14.8547368,0.7890625 C10.8202105,0.7890625 10.3143158,0.806115132 8.73031579,0.878115132 C7.14884211,0.950746711 6.06884211,1.20148355 5.124,1.56843092 C4.14757895,1.94800987 3.31894737,2.45643092 2.49347368,3.28190461 C1.66736842,4.10800987 1.15957895,4.93600987 0.78,5.9130625 C0.412421053,6.85790461 0.161684211,7.93790461 0.0896842105,9.51874671 C0.0170526316,11.1033783 1.77635684e-15,11.609273 1.77635684e-15,15.6437993 C1.77635684e-15,19.6776941 0.0170526316,20.1835888 0.0896842105,21.7682204 C0.161684211,23.3490625 0.412421053,24.4290625 0.78,25.3739046 C1.15957895,26.3509572 1.66736842,27.1789572 2.49347368,28.0050625 C3.31894737,28.8305362 4.14757895,29.3389572 5.124,29.7185362 C6.06884211,30.0854836 7.14884211,30.3362204 8.73031579,30.408852 C10.3143158,30.480852 10.8202105,30.4979046 14.8547368,30.4979046 C18.8892632,30.4979046 19.3945263,30.480852 20.9791579,30.408852 C22.56,30.3362204 23.64,30.0854836 24.5848421,29.7185362 C25.5618947,29.3389572 26.3905263,28.8305362 27.216,28.0050625 C28.0421053,27.1789572 28.5498947,26.3509572 28.9288421,25.3739046 C29.2964211,24.4290625 29.5477895,23.3490625 29.6197895,21.7682204 C29.6917895,20.1835888 29.7094737,19.6776941 29.7094737,15.6437993 C29.7094737,11.609273 29.6917895,11.1033783 29.6197895,9.51874671 C29.5477895,7.93790461 29.2964211,6.85790461 28.9288421,5.9130625 C28.5498947,4.93600987 28.0421053,4.10800987 27.216,3.28190461 C26.3905263,2.45643092 25.5618947,1.94800987 24.5848421,1.56843092 C23.64,1.20148355 22.56,0.950746711 20.9791579,0.878115132 C19.3945263,0.806115132 18.8892632,0.7890625 14.8547368,0.7890625 M14.8547368,3.4650625 C18.8204211,3.4650625 19.2903158,3.48022039 20.8572632,3.55222039 C22.3054737,3.61790461 23.0917895,3.85979934 23.6153684,4.06379934 C24.3088421,4.33285197 24.8033684,4.65495724 25.3231579,5.17474671 C25.8429474,5.69453618 26.1650526,6.1890625 26.4347368,6.88253618 C26.6374737,7.40611513 26.88,8.1930625 26.9463158,9.64127303 C27.0176842,11.2075888 27.0322105,11.676852 27.0322105,15.6437993 C27.0322105,19.6101151 27.0176842,20.0793783 26.9463158,21.6456941 C26.88,23.0939046 26.6374737,23.880852 26.4347368,24.4044309 C26.1650526,25.0979046 25.8429474,25.5924309 25.3231579,26.1122204 C24.8033684,26.6320099 24.3088421,26.9541151 23.6153684,27.2231678 C23.0917895,27.4271678 22.3054737,27.6690625 20.8572632,27.7353783 C19.2903158,27.8061151 18.8210526,27.821273 14.8547368,27.821273 C10.8877895,27.821273 10.4185263,27.8061151 8.85221053,27.7353783 C7.404,27.6690625 6.61705263,27.4271678 6.09347368,27.2231678 C5.40063158,26.9541151 4.90547368,26.6320099 4.38568421,26.1122204 C3.86589474,25.5924309 3.54378947,25.0979046 3.27473684,24.4044309 C3.07136842,23.880852 2.82884211,23.0939046 2.76315789,21.6456941 C2.69178947,20.0793783 2.67663158,19.6101151 2.67663158,15.6437993 C2.67663158,11.676852 2.69178947,11.2075888 2.76315789,9.64127303 C2.82884211,8.1930625 3.07136842,7.40611513 3.27473684,6.88253618 C3.54378947,6.1890625 3.86589474,5.69453618 4.38568421,5.17474671 C4.90547368,4.65495724 5.40063158,4.33285197 6.09347368,4.06379934 C6.61705263,3.85979934 7.404,3.61790461 8.85221053,3.55222039 C10.4185263,3.48022039 10.8884211,3.4650625 14.8547368,3.4650625" id="Fill-5"></path>
                        <path d="M14.6282105,20.3682204 C11.8934737,20.3682204 9.67663158,18.1513783 9.67663158,15.4166414 C9.67663158,12.6819046 11.8934737,10.4650625 14.6282105,10.4650625 C17.3629474,10.4650625 19.5797895,12.6819046 19.5797895,15.4166414 C19.5797895,18.1513783 17.3629474,20.3682204 14.6282105,20.3682204 M14.6282105,7.7890625 C10.4155789,7.7890625 7,11.2040099 7,15.4166414 C7,19.6299046 10.4155789,23.044852 14.6282105,23.044852 C18.8408421,23.044852 22.2557895,19.6299046 22.2557895,15.4166414 C22.2557895,11.2040099 18.8408421,7.7890625 14.6282105,7.7890625" id="Fill-7"></path>
                        <path d="M24.5652632,7.57200987 C24.5652632,8.55664145 23.7669474,9.35432566 22.7829474,9.35432566 C21.7983158,9.35432566 21,8.55664145 21,7.57200987 C21,6.58737829 21.7983158,5.7890625 22.7829474,5.7890625 C23.7669474,5.7890625 24.5652632,6.58737829 24.5652632,7.57200987" id="Fill-9"></path>
                    </g>
                </g>
            </g>
        </g>
    </g>
</svg>