<?xml version="1.0" encoding="UTF-8"?>
<svg width="50px" height="50px" viewBox="0 0 50 50" version="1.1" xmlns="http://www.w3.org/2000/svg" xmlns:xlink="http://www.w3.org/1999/xlink">
    <!-- Generator: Sketch 43.2 (39069) - http://www.bohemiancoding.com/sketch -->
    <title>Shape</title>
    <desc>Created with Sketch.</desc>
    <defs></defs>
    <g id="Welcome" stroke="none" stroke-width="1" fill="none" fill-rule="evenodd">
        <g id="Mobile-Portrait" transform="translate(-174.000000, -1237.000000)" fill="#FFFFFF">
            <g id="Group-16" transform="translate(-17.000000, -61.000000)">
                <path d="M236.388511,1312.61617 L234.754468,1314.25021 C231.214043,1311.16426 226.674468,1309.4383 221.954468,1309.4383 C218.776596,1309.4383 215.600426,1310.25532 212.877021,1311.70723 L219.775745,1304.80851 C220.320426,1305.17106 220.955319,1305.35319 221.591915,1305.35319 C222.499149,1305.35319 223.408085,1304.99064 224.133191,1304.26383 C225.585106,1302.81191 225.585106,1300.54128 224.133191,1299.08936 C223.406383,1298.36255 222.499149,1298 221.591915,1298 C220.684681,1298 219.775745,1298.36255 219.050638,1299.08936 C217.871064,1300.36085 217.688936,1302.17532 218.505957,1303.53702 L209.791064,1312.25191 L208.157021,1310.61787 L203.709362,1315.06553 L205.343404,1316.69957 L196.446383,1325.5966 C195.901702,1325.23404 195.266809,1325.05191 194.630213,1325.05191 C193.722979,1325.05191 192.814043,1325.41447 192.088936,1326.14128 C190.637021,1327.59319 190.637021,1329.86383 192.088936,1331.31574 C192.815745,1331.95064 193.722979,1332.31489 194.630213,1332.31489 C195.537447,1332.31489 196.446383,1331.95234 197.171489,1331.22553 C198.351064,1330.04596 198.533191,1328.22979 197.71617,1326.77787 L204.614894,1319.87915 C200.984255,1326.86979 201.801277,1335.58468 207.15617,1341.7566 L205.522128,1343.48085 L210.061702,1347.92851 L214.509362,1343.48085 L210.061702,1339.03319 L208.517872,1340.57702 C203.253191,1334.4034 202.980851,1325.50809 207.428511,1318.97191 L208.155319,1319.69872 L212.694894,1315.25106 L211.877872,1314.52426 C214.783404,1312.43574 218.32383,1311.34638 221.954468,1311.34638 C226.221702,1311.34638 230.214894,1312.89021 233.482979,1315.61362 L231.848936,1317.15745 L236.388511,1321.60511 L240.83617,1317.15745 L236.388511,1312.61787 L236.388511,1312.61617 Z M211.968085,1343.48085 L210.061702,1345.38723 L208.155319,1343.48085 L210.061702,1341.57447 L211.968085,1343.48085 L211.968085,1343.48085 Z M220.320426,1300.45106 C220.682979,1300.08851 221.137447,1299.90638 221.591915,1299.90638 C222.046383,1299.90638 222.499149,1300.08851 222.863404,1300.45106 C223.590213,1301.17787 223.590213,1302.26723 222.863404,1302.99234 C222.500851,1303.35489 222.046383,1303.53702 221.591915,1303.53702 C221.137447,1303.53702 220.684681,1303.35489 220.320426,1302.99234 C219.593617,1302.35745 219.593617,1301.17617 220.320426,1300.45106 L220.320426,1300.45106 Z M195.9,1329.95404 C195.537447,1330.3166 195.082979,1330.49872 194.628511,1330.49872 C194.174043,1330.49872 193.721277,1330.3166 193.357021,1329.95404 C192.994468,1329.6817 192.81234,1329.22723 192.81234,1328.68255 C192.81234,1328.22809 192.994468,1327.77532 193.357021,1327.41106 C193.719574,1327.04681 194.174043,1326.86638 194.628511,1326.86638 C195.082979,1326.86638 195.535745,1327.04851 195.9,1327.41106 C196.626809,1328.13787 196.626809,1329.31745 195.9,1329.95234 L195.9,1329.95404 Z M208.065106,1317.15404 L206.158723,1315.24766 L208.065106,1313.34128 L209.971489,1315.24766 L208.065106,1317.15404 L208.065106,1317.15404 Z M236.388511,1319.06043 L234.482128,1317.15404 L236.388511,1315.24766 L238.294894,1317.15404 L236.388511,1319.06043 L236.388511,1319.06043 Z" id="Shape"></path>
            </g>
        </g>
    </g>
</svg>