<?xml version="1.0" encoding="UTF-8"?>
<svg width="50px" height="50px" viewBox="0 0 50 50" version="1.1" xmlns="http://www.w3.org/2000/svg" xmlns:xlink="http://www.w3.org/1999/xlink">
    <!-- Generator: Sketch 43.2 (39069) - http://www.bohemiancoding.com/sketch -->
    <title>Group 14</title>
    <desc>Created with Sketch.</desc>
    <defs></defs>
    <g id="Welcome" stroke="none" stroke-width="1" fill="none" fill-rule="evenodd">
        <g id="Mobile-Portrait" transform="translate(-138.000000, -3697.000000)">
            <g id="Group-16" transform="translate(-54.000000, -98.000000)">
                <g id="Group-14" transform="translate(192.000000, 3795.000000)">
                    <path d="M25,50 C11.193186,50 5.68434189e-14,38.806814 5.68434189e-14,25 C5.68434189e-14,11.1925715 11.193186,0 25,0 C38.8074285,0 50,11.1925715 50,25 C50,38.806814 38.8074285,50 25,50 Z" id="Fill-3" fill="#65003A"></path>
                    <path d="M11,33.9904563 C13.5503306,35.6864423 16.5800005,36.6762455 19.8339765,36.6762455 C30.5343035,36.6762455 36.5788943,27.3033892 36.2150881,18.8961168 C37.3403063,18.054816 38.3180354,17.0019152 39.0905091,15.8017868 C38.0562425,16.2772492 36.9457732,16.5991105 35.7812247,16.7425141 C36.9697402,16.0044638 37.884172,14.8330161 38.3137337,13.4359468 C37.2001917,14.1217345 35.966815,14.6188668 34.655392,14.8878281 C33.6039183,13.7259407 32.1062904,13 30.4476537,13 C26.7284728,13 23.9943954,16.6003852 24.8344682,20.3390752 C20.0441484,20.0898717 15.7983088,17.7106474 12.9560729,14.0936911 C11.4461542,16.780755 12.1731521,20.2957355 14.7394607,22.0739396 C13.794302,22.0433468 12.9050662,21.7737481 12.1282908,21.3256917 C12.0662226,24.095611 13.9792778,26.6851605 16.7508419,27.2625989 C15.9396524,27.4920445 15.0510312,27.5436698 14.1495047,27.3645747 C14.8808043,29.7406123 17.0095622,31.4671911 19.5322386,31.5156296 C17.1097318,33.4856758 14.0579386,34.3652176 11,33.9904563" id="Fill-5" fill="#FCDBDC"></path>
                </g>
            </g>
        </g>
    </g>
</svg>