<?xml version="1.0" encoding="UTF-8"?>
<svg width="49px" height="32px" viewBox="0 0 49 32" version="1.1" xmlns="http://www.w3.org/2000/svg" xmlns:xlink="http://www.w3.org/1999/xlink">
    <!-- Generator: Sketch 43.2 (39069) - http://www.bohemiancoding.com/sketch -->
    <title>Group 3</title>
    <desc>Created with Sketch.</desc>
    <defs></defs>
    <g id="Welcome" stroke="none" stroke-width="1" fill="none" fill-rule="evenodd">
        <g id="Mobile-Portrait" transform="translate(-204.000000, -1082.000000)">
            <g id="Group-16" transform="translate(-59.000000, 0.000000)">
                <g id="Group-3" transform="translate(263.000000, 1073.000000)">
                    <g id="icomoon-ignore"></g>
                    <path d="M0,18.9538915 L0,30.3963443 L4.90412736,30.3963443 L4.90412736,40.2045991 L6.53832547,40.2045991 L6.53832547,30.3963443 L19.1121462,30.3963443 L31.0512972,40.0574292 L31.0512972,9 L19.0370283,18.9538915 L4.22838847e-15,18.9538915 L0,18.9538915 Z M1.63573113,28.7606132 L1.63573113,20.5880896 L8.1740566,20.5880896 L8.1740566,28.7606132 L1.63573113,28.7606132 L1.63573113,28.7606132 Z M20.0794811,20.2125 L29.415566,12.4768868 L29.415566,36.6311321 L19.6900943,28.7621462 L9.8067217,28.7621462 L9.8067217,20.5896226 L19.6241745,20.5896226 L20.0779481,20.214033 L20.0794811,20.2125 Z" id="Shape" fill="#FFFFFF"></path>
                    <path d="M41.4870283,11 L40.3112028,12.1758255 C44.1360849,15.1698113 46.6088443,19.8179245 46.6088443,25.0409198 C46.6088443,30.4034198 44.0011792,35.1573113 40,38.139033 L41.1834906,39.3225236 C45.4744104,36.0372642 48.2445755,30.8633255 48.2445755,25.0409198 C48.2445755,19.3595519 45.604717,14.2944575 41.4885613,11 L41.4870283,11 Z" id="Shape" fill="#FFFFFF"></path>
                    <path d="M36.5268868,16 L35.3387972,17.1880896 C37.8621462,18.7824292 39.546934,21.5878538 39.546934,24.7872642 C39.546934,28.1277123 37.7119104,31.0419811 35,32.5918632 L36.1911557,33.7830189 C39.1851415,31.9035377 41.1826651,28.5830189 41.1826651,24.7872642 C41.1826651,21.1325472 39.3369104,17.9116745 36.5284198,16 L36.5268868,16 Z" id="Shape" fill="#FFFFFF"></path>
                </g>
            </g>
        </g>
    </g>
</svg>