<?xml version="1.0" encoding="UTF-8"?>
<svg width="307px" height="26px" viewBox="0 0 307 26" version="1.1" xmlns="http://www.w3.org/2000/svg" xmlns:xlink="http://www.w3.org/1999/xlink">
    <!-- Generator: Sketch 43.1 (39012) - http://www.bohemiancoding.com/sketch -->
    <title>Fill 1</title>
    <desc>Created with Sketch.</desc>
    <defs></defs>
    <g id="Page-1" stroke="none" stroke-width="1" fill="none" fill-rule="evenodd">
        <g id="Desktop-HD" transform="translate(-315.000000, -1632.000000)" fill="#DCDCDC">
            <path d="M590.184,1657.739 C581.307,1657.739 572.497,1654.691 565.379,1649.156 C562.35,1646.799 559.876,1644.181 558.083,1641.501 C556.461,1644.145 554.229,1646.718 551.498,1649.026 C544.922,1654.582 536.586,1657.641 528.024,1657.641 C514.899,1657.641 502.819,1650.172 497.113,1641.766 C492.416,1650.022 482.177,1657.641 468.041,1657.641 C453.68,1657.641 442.997,1650.026 437.985,1641.868 C432.995,1650.026 422.359,1657.641 408.06,1657.641 C399.309,1657.641 390.908,1654.587 384.404,1649.041 C381.86,1646.871 379.759,1644.454 378.191,1641.952 C372.953,1650.43 361.614,1657.641 348.079,1657.641 C327.647,1657.641 315,1644.332 315,1632 L321.323,1632 C321.323,1641.33 332.074,1651.319 348.079,1651.319 C364.252,1651.319 374.983,1639.691 374.983,1632 L381.306,1632 C381.306,1638.811 391.463,1651.319 408.06,1651.319 C423.581,1651.319 434.817,1639.78 434.817,1632 L441.139,1632 C441.139,1638.811 451.353,1651.319 468.041,1651.319 C484.861,1651.319 493.661,1638.742 493.661,1632 L499.983,1632 C499.983,1638.614 511.824,1651.319 528.024,1651.319 C544.36,1651.319 554.78,1638.634 554.78,1632 L561.102,1632 C561.102,1638.647 573.384,1651.416 590.184,1651.416 C605.573,1651.416 614.76,1644.158 614.76,1632 L621.082,1632 C621.082,1647.877 609.244,1657.739 590.184,1657.739" id="Fill-1"></path>
        </g>
    </g>
</svg>